<svg xmlns="http://www.w3.org/2000/svg" viewBox="0 0 32 32"><path d="M16 32c8.8 0 16-7.2 16-16S24.8 0 16 0 0 7.2 0 16s7.2 16 16 16z" fill="#de2910"/><path d="M11.1 12.3L9.3 6.7l-1.8 5.6H1.6l4.8 3.5-1.8 5.5 4.7-3.4 4.7 3.4-1.8-5.5 4.8-3.5zm11.2-4.6l1 1.7.2-2 1.9-.4-1.8-.8.2-1.9-1.3 1.4-1.8-.7 1 1.6-1.3 1.5zm5.1 5.1l.2 2 1-1.8 1.9.4-1.4-1.4.9-1.8-1.7.9-1.4-1.4.3 1.9-1.8.9zm1.7 7.7l1.5-1.2h-1.9l-.7-1.8-.5 1.9h-2l1.6 1.1-.5 1.9 1.5-1.2 1.7 1.1zM23.6 25l.1-2-1.2 1.6-1.9-.7 1.1 1.6-1.2 1.5 1.9-.5 1 1.6.1-1.9 1.9-.5z" fill="#ffde00"/></svg>