<svg version="1.1" id="Layer_1" xmlns="http://www.w3.org/2000/svg" x="0" y="0" viewBox="0 0 32 32" xml:space="preserve"><style>.st1{fill:#ffde00}</style><path d="M16 32c8.8 0 16-7.2 16-16S24.8 0 16 0 0 7.2 0 16s7.2 16 16 16z" fill="#de2910"/><path class="st1" d="M11.1 12.3L9.3 6.7l-1.8 5.6H1.6l4.8 3.5-1.8 5.5 4.7-3.4 4.7 3.4-1.8-5.5 4.8-3.5zM22.3 7.7l1 1.7.2-2 1.9-.4-1.8-.8.2-1.9-1.3 1.4-1.8-.7 1 1.6-1.3 1.5zM27.4 12.8l.2 2 1-1.8 1.9.4-1.4-1.4.9-1.8-1.7.9-1.4-1.4.3 1.9-1.8.9zM29.1 20.5l1.5-1.2h-1.9l-.7-1.8-.5 1.9h-2l1.6 1.1-.5 1.9 1.5-1.2 1.7 1.1zM23.6 25l.1-2-1.2 1.6-1.9-.7 1.1 1.6-1.2 1.5 1.9-.5 1 1.6.1-1.9 1.9-.5z"/></svg>