<svg width="41" height="41" fill="none" xmlns="http://www.w3.org/2000/svg"><path d="M20.5 41C31.822 41 41 31.822 41 20.5S31.822 0 20.5 0 0 9.178 0 20.5 9.178 41 20.5 41z" fill="#005983"/><path d="M32.26 22.118v8.2h-4.747v-7.66c0-1.942-.647-3.237-2.373-3.237-1.295 0-2.05.863-2.374 1.726-.108.324-.108.756-.108 1.187v7.984H17.91s.108-12.84 0-14.242h4.748v2.05c.647-.97 1.726-2.374 4.316-2.374 3.02 0 5.287 2.05 5.287 6.366zM12.84 9.171c-1.619 0-2.698 1.079-2.698 2.482 0 1.402 1.079 2.481 2.59 2.481 1.618 0 2.697-1.079 2.697-2.482.108-1.402-.971-2.481-2.59-2.481zm-2.374 21.147h4.747V16.076h-4.747v14.242z" fill="#F1F2F2"/></svg>