<svg xmlns="http://www.w3.org/2000/svg" viewBox="0 0 204 58"><path d="M29 58C13 58 0 45 0 29S13 0 29 0s29 13 29 29-13 29-29 29zm0-55C14.7 3 3 14.7 3 29s11.6 26 26 26 26-11.6 26-26S43.3 3 29 3z"/><path d="M15.8 12.6h6.7v18.7c0 3 .1 4.8.2 5.8.2 1.4 1 2.5 2 3.4 1.1.8 2.5 1.3 4.5 1.3s3.4-.4 4.3-1.2c1-.8 1.6-1.8 1.7-3 .2-1.2.2-3.1.2-5.8V12.6h6.7v18c0 4.1-.2 7-.6 8.8-.4 1.7-1.1 3.1-2 4.3-1 1.2-2.3 2-3.9 2.8-1.7.7-3.7 1.1-6.4 1.1-3.1 0-5.5-.4-7.2-1.1-1.7-.7-2.9-1.7-3.9-3-1-1.2-1.6-2.5-1.9-3.9-.5-1.9-.6-4.8-.6-8.7V12.6zM76.5 31.2l-1.4 1.5V35h-1.7v-9.1h1.7v4.7l4.5-4.7h1.9L77.7 30l4.1 5h-2l-3.3-3.8zm9 3.9c-.7 0-1.3-.2-1.9-.5-.6-.3-1-.7-1.3-1.3-.3-.5-.5-1.2-.5-1.8s.2-1.3.5-1.8.8-1 1.3-1.3c.6-.3 1.2-.5 1.9-.5s1.3.2 1.9.5c.6.3 1 .7 1.3 1.3.3.5.5 1.1.5 1.8s-.2 1.3-.5 1.8-.7 1-1.3 1.3c-.5.3-1.1.5-1.9.5zm0-1.4c.6 0 1.1-.2 1.5-.6s.6-.9.6-1.6c0-.6-.2-1.2-.6-1.6-.4-.4-.9-.6-1.5-.6s-1.1.2-1.5.6c-.4.4-.6.9-.6 1.6 0 .7.2 1.2.6 1.6.5.4.9.6 1.5.6zm7.4 1.4c-.6 0-1.1-.1-1.7-.2-.5-.1-1-.3-1.3-.6l.6-1.2c.3.2.7.4 1.1.5.4.1.9.2 1.3.2 1 0 1.5-.3 1.5-.8 0-.2-.1-.4-.4-.5-.2-.1-.6-.2-1.2-.3-.6-.1-1-.2-1.4-.3-.4-.1-.7-.3-.9-.6-.3-.3-.4-.7-.4-1.2 0-.7.3-1.2.8-1.6.6-.4 1.3-.6 2.2-.6.5 0 1 .1 1.4.2.5.1.9.2 1.2.4l-.6 1.2c-.6-.3-1.3-.5-2-.5-.5 0-.8.1-1.1.2-.2.1-.4.3-.4.6s.1.4.4.6c.3.1.7.2 1.2.3.6.1 1 .2 1.4.3.4.1.7.3.9.6.3.3.4.6.4 1.1 0 .7-.3 1.2-.8 1.6-.4.4-1.2.6-2.2.6zm8.5-7.1c.9 0 1.6.3 2.1.8s.8 1.3.8 2.3v4h-1.6v-3.8c0-.6-.1-1.1-.4-1.4-.3-.3-.7-.5-1.2-.5-.6 0-1.1.2-1.4.5-.3.4-.5.9-.5 1.5V35h-1.6v-9.6h1.6v3.5c.3-.3.6-.5 1-.6.3-.2.7-.3 1.2-.3zm11.6 3.6v.5h-5.4c.1.5.3.9.7 1.2.4.3.9.4 1.5.4.8 0 1.4-.3 1.9-.8l.9 1c-.3.4-.7.7-1.2.8-.5.2-1 .3-1.6.3-.8 0-1.4-.2-2-.5-.6-.3-1-.7-1.4-1.3-.3-.5-.5-1.2-.5-1.8 0-.7.2-1.3.5-1.8s.7-1 1.3-1.3c.5-.3 1.2-.5 1.8-.5.7 0 1.3.2 1.8.5s1 .7 1.2 1.3c.3.6.5 1.3.5 2zm-3.5-2.3c-.5 0-1 .2-1.3.5-.4.3-.6.7-.7 1.2h3.9c-.1-.5-.3-.9-.6-1.2-.4-.4-.8-.5-1.3-.5zm6.6-.2c.5-.7 1.3-1.1 2.5-1.1v1.5h-.4c-.6 0-1.1.2-1.5.6-.4.4-.5.9-.5 1.6V35h-1.6v-6.9h1.5v1zm11.3-1.1c.7 0 1.3.1 1.8.4.5.3 1 .7 1.3 1.2s.5 1.2.5 1.9-.2 1.3-.5 1.9c-.3.5-.7 1-1.3 1.2-.5.3-1.1.4-1.8.4-.9 0-1.7-.3-2.2-.9v3.4h-1.6V28h1.5v1c.3-.3.6-.6 1-.7.4-.2.9-.3 1.3-.3zm-.1 5.7c.6 0 1.1-.2 1.5-.6.4-.4.6-.9.6-1.6 0-.6-.2-1.2-.6-1.6-.4-.4-.9-.6-1.5-.6-.4 0-.7.1-1.1.3-.3.2-.6.4-.7.8s-.3.7-.3 1.1.1.8.3 1.1.4.6.7.8c.3.2.7.3 1.1.3zm11.7-2.1v.5h-5.4c.1.5.3.9.7 1.2.4.3.9.4 1.5.4.8 0 1.4-.3 1.9-.8l.9 1c-.3.4-.7.7-1.2.8s-1 .3-1.6.3c-.8 0-1.4-.2-2-.5-.6-.3-1-.7-1.4-1.3-.3-.5-.5-1.2-.5-1.8 0-.7.2-1.3.5-1.8s.7-1 1.3-1.3c.5-.3 1.2-.5 1.8-.5.7 0 1.3.2 1.8.5s1 .7 1.2 1.3c.4.6.5 1.3.5 2zm-3.5-2.3c-.5 0-1 .2-1.3.5-.4.3-.6.7-.7 1.2h3.9c-.1-.5-.3-.9-.6-1.2-.3-.4-.7-.5-1.3-.5zm6.6-.2c.5-.7 1.3-1.1 2.5-1.1v1.5h-.4c-.6 0-1.1.2-1.5.6-.4.4-.5.9-.5 1.6V35h-1.6v-6.9h1.5v1zm14.3-3.7V35h-1.6v-.9c-.3.3-.6.6-1 .7-.4.2-.8.2-1.3.2-.7 0-1.3-.1-1.8-.4-.5-.3-.9-.7-1.2-1.2-.3-.5-.5-1.2-.5-1.9s.2-1.3.5-1.9c.3-.5.7-1 1.2-1.2.5-.3 1.1-.4 1.8-.4.5 0 .9.1 1.3.2.4.2.7.4 1 .7v-3.6h1.6zm-3.6 8.3c.4 0 .7-.1 1.1-.3.3-.2.6-.4.7-.8.2-.3.3-.7.3-1.1s-.1-.8-.3-1.1c-.2-.3-.4-.6-.7-.8-.3-.2-.7-.3-1.1-.3s-.7.1-1.1.3c-.3.2-.6.4-.7.8s-.3.7-.3 1.1.1.8.3 1.1.4.6.7.8c.3.2.7.3 1.1.3zm12.3-2.1v.5h-5.4c.1.5.3.9.7 1.2.4.3.9.4 1.5.4.8 0 1.4-.3 1.9-.8l.9 1c-.3.4-.7.7-1.2.8-.5.2-1 .3-1.6.3-.8 0-1.4-.2-2-.5-.6-.3-1-.7-1.4-1.3-.3-.5-.5-1.2-.5-1.8 0-.7.2-1.3.5-1.8s.7-1 1.3-1.3c.5-.3 1.2-.5 1.8-.5.7 0 1.3.2 1.8.5s1 .7 1.2 1.3c.3.6.5 1.3.5 2zm-3.5-2.3c-.5 0-1 .2-1.3.5-.4.3-.6.7-.6 1.2h3.9c-.1-.5-.3-.9-.6-1.2-.4-.4-.9-.5-1.4-.5zm13.8-1.3c.9 0 1.6.3 2.1.8s.8 1.3.8 2.3v4h-1.6v-3.8c0-.6-.1-1.1-.4-1.4-.3-.3-.7-.5-1.2-.5s-1 .2-1.3.5c-.3.4-.5.9-.5 1.5V35h-1.6v-3.8c0-.6-.1-1.1-.4-1.4-.3-.3-.7-.5-1.2-.5-.6 0-1 .2-1.3.5-.3.4-.5.9-.5 1.5V35h-1.6v-6.9h1.5v.9c.3-.3.6-.6 1-.7.4-.2.8-.2 1.3-.2s1 .1 1.4.3c.4.2.7.5 1 .9.3-.4.7-.6 1.1-.8.4-.4.9-.5 1.4-.5zm7.6 0c1 0 1.8.2 2.3.7.5.5.8 1.2.8 2.2V35h-1.5v-.8c-.2.3-.5.5-.9.7-.4.2-.8.2-1.3.2s-1-.1-1.4-.3c-.4-.2-.7-.4-.9-.7-.2-.3-.3-.7-.3-1.1 0-.6.2-1.1.7-1.5.5-.4 1.2-.6 2.2-.6h1.8v-.1c0-.5-.1-.9-.4-1.1-.3-.3-.7-.4-1.3-.4-.4 0-.8.1-1.2.2-.4.1-.7.3-.9.5l-.6-1.2c.4-.3.8-.5 1.3-.6.5-.1 1-.2 1.6-.2zm-.2 5.9c.4 0 .8-.1 1.1-.3.3-.2.5-.5.7-.8V32h-1.7c-.9 0-1.4.3-1.4.9 0 .3.1.5.4.7.1.2.5.3.9.3zm9.4-5.9c.9 0 1.6.3 2.1.8s.8 1.3.8 2.3v4h-1.6v-3.8c0-.6-.1-1.1-.4-1.4-.3-.3-.7-.5-1.2-.5-.6 0-1.1.2-1.4.5-.3.4-.5.9-.5 1.5V35h-1.6v-6.9h1.5v.9c.3-.3.6-.6 1-.7.3-.2.8-.3 1.3-.3zm11.8-2.6V35h-1.6v-.9c-.3.3-.6.6-1 .7-.4.2-.8.2-1.3.2-.7 0-1.3-.1-1.8-.4-.5-.3-.9-.7-1.2-1.2-.3-.5-.5-1.2-.5-1.9s.2-1.3.5-1.9c.3-.5.7-1 1.2-1.2.5-.3 1.1-.4 1.8-.4.5 0 .9.1 1.3.2.4.2.7.4 1 .7v-3.6h1.6zm-3.7 8.3c.4 0 .7-.1 1.1-.3.3-.2.6-.4.7-.8.2-.3.3-.7.3-1.1s-.1-.8-.3-1.1c-.2-.3-.4-.6-.7-.8-.3-.2-.7-.3-1.1-.3s-.7.1-1.1.3c-.3.2-.6.4-.7.8-.2.3-.3.7-.3 1.1s.1.8.3 1.1c.2.3.4.6.7.8.4.2.7.3 1.1.3z"/></svg>