<svg version="1.1" id="Layer_1" xmlns="http://www.w3.org/2000/svg" x="0" y="0" viewBox="0 0 250 122.8" xml:space="preserve"><style>.st0{fill:#00519c}</style><path class="st0" d="M190.4 36.4l-3.1-3.7C173.9 16.5 152.8 7 130.4 7c-22.6 0-43.2 9.4-56.7 25-4.6-7.8-7.1-16.7-7.1-26.1V3.5c0-1.9-1.7-3.5-3.9-3.5s-3.9 1.6-3.9 3.5v2.3c0 11.6 3.5 22.8 10 32.5-6.5 9.8-10 20.9-10 32.5v2.4c0 1.9 1.8 3.5 4 3.5s3.9-1.6 3.9-3.5v-2.3c0-9.4 2.6-18.3 7.1-26.1 13.5 15.5 34 25 56.7 25 22.1 0 43.2-9.3 56.8-25.6l3.1-3.7c1-1.2 1-2.9 0-4.1zm-60 26.3c-21.6 0-40.8-9.7-52.3-24.4 11.5-14.7 30.7-24.4 52.3-24.4 2.2 0 4.3.1 6.4.3-5 7.2-7.7 15.5-7.7 24.1s2.7 16.9 7.7 24.1c-2.1.2-4.3.3-6.4.3zM181 40c-8.9 10.6-21.7 18.1-35.8 21.2-5.4-6.6-8.4-14.6-8.4-22.8 0-8.2 3-16.2 8.4-22.8 14.2 3 27 10.5 35.8 21.1l1.4 1.6L181 40z"/><path class="st0" d="M144.6 38.2c0 5.8 5.2 10.5 11.6 10.5 6.4 0 11.6-4.7 11.6-10.5s-5.2-10.5-11.6-10.5-11.6 4.7-11.6 10.5zm11.6-3.5c2.1 0 3.9 1.6 3.9 3.5s-1.7 3.5-3.9 3.5c-2.1 0-3.9-1.6-3.9-3.5.1-1.9 1.8-3.5 3.9-3.5zM11.4 112.2c4.8 0 7.9-2.4 7.9-6.4 0-3.7-2.8-5.2-7.3-6.2-2.7-.6-3.4-1-3.4-1.9 0-.8.6-1.3 2-1.3 1.7 0 3.7.7 5.5 1.9l2.7-3.8c-2.1-1.7-4.7-2.6-8.1-2.6-4.7 0-7.6 2.6-7.6 6.3 0 4.1 3.2 5.3 7.4 6.2 2.7.6 3.3 1.1 3.3 1.9 0 .9-.8 1.4-2.2 1.4-2.3 0-4.4-.8-6.4-2.4l-3 3.6c2.4 2.2 5.7 3.3 9.2 3.3zm14.6 0c2 0 3.4-.8 4.5-1.9v1.6h5.3v-8.7c0-2.1-.5-3.7-1.6-4.8-1.2-1.2-3.1-1.8-5.8-1.8-2.6 0-4.4.5-6.1 1.2l1.1 3.8c1.3-.5 2.6-.8 4.2-.8 2 0 3 .9 3 2.5v.3c-.9-.3-2.2-.6-3.6-.6-3.6 0-5.9 1.6-5.9 4.8-.2 2.7 2 4.4 4.9 4.4zm1.9-3.3c-1.1 0-1.9-.6-1.9-1.7 0-1.2.9-1.9 2.4-1.9.8 0 1.5.2 2.1.4v.7c0 1.5-1.1 2.5-2.6 2.5zm10.6 2.9h5.3V91.4h-5.3v20.4zm8.3 0h5.3v-8.2c0-1.7.9-2.5 2.2-2.5s2.1.9 2.1 2.5v8.2h5.3v-8.2c0-1.7.9-2.5 2.2-2.5s2.1.9 2.1 2.5v8.2h5.3v-9.9c0-3.5-2-5.5-5.2-5.5-2.2 0-3.8 1-5.1 2.5-.8-1.6-2.4-2.5-4.4-2.5-2.1 0-3.5 1.1-4.5 2.4v-2.1h-5.3v15.1zm34.9.4c4.9 0 8.4-3.6 8.4-7.9 0-4.4-3.5-7.9-8.3-7.9-4.9 0-8.4 3.6-8.4 7.9-.1 4.4 3.4 7.9 8.3 7.9zm0-4.5c-1.9 0-3.2-1.6-3.2-3.4 0-1.9 1.2-3.4 3.2-3.4 1.9 0 3.2 1.6 3.2 3.4 0 1.9-1.2 3.4-3.2 3.4zm10.6 4.1h5.3v-8.2c0-1.7 1-2.5 2.2-2.5 1.3 0 2.1.9 2.1 2.5v8.2h5.3v-9.9c0-3.4-1.9-5.6-5.2-5.6-2.2 0-3.6 1.2-4.5 2.5v-2.1h-5.3l.1 15.1zm27.7.4c3.6 0 6.7-3 6.7-7.9s-3.1-7.9-6.7-7.9c-2.3 0-3.6 1.1-4.6 2.4v-7.3h-5.3v20.4h5.3V110c1 1.2 2.3 2.2 4.6 2.2zm-1.6-4.5c-1.7 0-3.1-1.4-3.1-3.4s1.4-3.5 3.1-3.5 3.1 1.4 3.1 3.4c0 2.1-1.4 3.5-3.1 3.5zm18.1 4.5c3 0 5.1-1.2 6.6-3.1l-2.9-2.4c-1.1 1.1-2.1 1.5-3.4 1.5-1.7 0-2.9-.8-3.3-2.5h10.1v-1.1c0-4.5-2.4-8.3-7.6-8.3-4.5 0-7.6 3.5-7.6 7.9 0 4.9 3.4 8 8.1 8zm-3.1-9.2c.3-1.7 1.2-2.7 2.6-2.7 1.5 0 2.4 1.1 2.6 2.7h-5.2zm12.7 8.8h5.3V91.4h-5.3v20.4zm8.4 0h5.3V91.4h-5.3v20.4zm8.4 0h5.3V96.7h-5.3v15.1zm-.2-16.5h5.5v-3.9h-5.5v3.9zm15.9 16.9c3 0 5.1-1.2 6.6-3.1l-2.9-2.4c-1.1 1.1-2.1 1.5-3.4 1.5-1.7 0-2.9-.8-3.3-2.5h10.1v-1.1c0-4.5-2.4-8.3-7.6-8.3-4.5 0-7.6 3.5-7.6 7.9 0 4.9 3.4 8 8.1 8zm-3-9.2c.3-1.7 1.2-2.7 2.6-2.7 1.5 0 2.4 1.1 2.6 2.7h-5.2zm18.5 9.2c3.7 0 6.2-1.7 6.2-5.1 0-3-2.4-4-5.4-4.9-1.6-.5-2.5-.8-2.5-1.3s.4-.8 1.2-.8c1.2 0 2.9.5 4.5 1.4l1.8-3.4c-1.7-1.1-4-1.8-6.2-1.8-3.5 0-6.1 1.8-6.1 5 0 3.1 2.4 4.1 5.4 4.9 1.6.4 2.4.7 2.4 1.3 0 .6-.4.9-1.3.9-1.6 0-3.5-.6-5.2-1.7l-2 3.2c2.1 1.6 4.7 2.3 7.2 2.3zm14.9-.4h5.7l1.4-3.5h7.6l1.4 3.5h5.8l-8.3-19.7h-5.2l-8.4 19.7zm8.7-7.7l2.2-5.6 2.2 5.6h-4.4zm22.5 8.1c4.8 0 7.9-2.4 7.9-6.4 0-3.7-2.8-5.2-7.3-6.2-2.7-.6-3.4-1-3.4-1.9 0-.8.6-1.3 2-1.3 1.7 0 3.7.7 5.5 1.9l2.7-3.8c-2.1-1.7-4.7-2.6-8.1-2.6-4.7 0-7.6 2.6-7.6 6.3 0 4.1 3.2 5.3 7.4 6.2 2.7.6 3.3 1.1 3.3 1.9 0 .9-.8 1.4-2.2 1.4-2.3 0-4.4-.8-6.4-2.4l-3 3.6c2.5 2.2 5.8 3.3 9.2 3.3z"/></svg>