<svg version="1.1" id="Layer_1" xmlns="http://www.w3.org/2000/svg" x="0" y="0" viewBox="0 0 230 32" xml:space="preserve"><style>.st0{fill:#00519c}</style><path class="st0" d="M54.9 15.2l-1.3-1.5C48 6.9 39.2 2.9 29.9 2.9c-9.4 0-18 3.9-23.7 10.4-1.9-3.3-3-7-3-10.9v-1C3.3.7 2.5 0 1.6 0 .7 0 0 .7 0 1.5v1C0 7.3 1.5 11.9 4.2 16 1.5 20.1 0 24.7 0 29.5v1c0 .8.8 1.5 1.7 1.5.9 0 1.6-.7 1.6-1.5v-1c0-3.9 1.1-7.6 3-10.9C11.9 25.1 20.5 29 30 29c9.2 0 18-3.9 23.7-10.7l1.3-1.5c.3-.4.3-1.1-.1-1.6zm-25 11c-9 0-17-4-21.8-10.2C12.9 9.8 20.9 5.8 29.9 5.8c.9 0 1.8 0 2.7.1-2.1 3-3.2 6.5-3.2 10.1 0 3.6 1.1 7.1 3.2 10.1-.9 0-1.9.1-2.7.1zM51 16.7c-3.7 4.4-9.1 7.6-14.9 8.8-2.3-2.8-3.5-6.1-3.5-9.5s1.3-6.8 3.5-9.5C42 7.8 47.3 10.9 51 15.3l.6.7-.6.7z"/><path class="st0" d="M35.8 15.9c0 2.4 2.2 4.4 4.8 4.4 2.7 0 4.8-2 4.8-4.4s-2.2-4.4-4.8-4.4-4.8 2-4.8 4.4zm4.8-1.4c.9 0 1.6.7 1.6 1.5s-.7 1.5-1.6 1.5c-.9 0-1.6-.7-1.6-1.5.1-.9.8-1.5 1.6-1.5zM70.7 23c3.2 0 5.3-1.6 5.3-4.3 0-2.5-1.9-3.5-4.9-4.2-1.8-.4-2.3-.7-2.3-1.3 0-.5.4-.9 1.3-.9 1.1 0 2.5.5 3.7 1.3l1.8-2.6c-1.4-1.1-3.2-1.7-5.5-1.7-3.2 0-5.1 1.7-5.1 4.2 0 2.8 2.2 3.6 5 4.2 1.8.4 2.2.7 2.2 1.3 0 .6-.5.9-1.5.9-1.5 0-3-.5-4.3-1.6l-2 2.4c1.7 1.5 3.9 2.3 6.3 2.3zm9.8 0c1.3 0 2.3-.5 3-1.3v1.1h3.6v-5.9c0-1.4-.3-2.5-1.1-3.2-.8-.8-2.1-1.2-3.9-1.2-1.8 0-3 .3-4.1.8l.7 2.6c.9-.3 1.8-.5 2.8-.5 1.3 0 2 .6 2 1.7v.2c-.6-.2-1.5-.4-2.4-.4-2.4 0-4 1.1-4 3.2 0 1.7 1.5 2.9 3.4 2.9zm1.3-2.2c-.7 0-1.3-.4-1.3-1.1 0-.8.6-1.3 1.6-1.3.5 0 1 .1 1.4.3v.5c0 .9-.7 1.6-1.7 1.6zm7.1 1.9h3.6V9h-3.6v13.7zm5.6 0h3.6v-5.5c0-1.1.6-1.7 1.5-1.7s1.4.6 1.4 1.7v5.5h3.6v-5.5c0-1.1.6-1.7 1.5-1.7s1.4.6 1.4 1.7v5.5h3.6V16c0-2.4-1.3-3.7-3.5-3.7-1.5 0-2.6.7-3.4 1.7-.5-1.1-1.6-1.7-3-1.7s-2.4.7-3 1.6v-1.4h-3.6c-.1 0-.1 10.2-.1 10.2zm23.5.3c3.3 0 5.7-2.4 5.7-5.3 0-3-2.4-5.3-5.6-5.3-3.3 0-5.7 2.4-5.7 5.3-.1 2.9 2.3 5.3 5.6 5.3zm0-3c-1.3 0-2.2-1.1-2.2-2.3 0-1.3.8-2.3 2.2-2.3 1.3 0 2.2 1.1 2.2 2.3 0 1.2-.9 2.3-2.2 2.3zm7.1 2.7h3.6v-5.5c0-1.1.7-1.7 1.5-1.7.9 0 1.4.6 1.4 1.7v5.5h3.6V16c0-2.3-1.3-3.8-3.5-3.8-1.5 0-2.4.8-3 1.7v-1.4h-3.6v10.2zm18.7.3c2.4 0 4.5-2 4.5-5.3s-2.1-5.3-4.5-5.3c-1.5 0-2.4.7-3.1 1.6V9h-3.6v13.7h3.6v-1.3c.7.9 1.5 1.6 3.1 1.6zm-1.1-3c-1.1 0-2.1-.9-2.1-2.3 0-1.3.9-2.4 2.1-2.4 1.1 0 2.1.9 2.1 2.3s-1 2.4-2.1 2.4zm12.2 3c2 0 3.4-.8 4.4-2.1l-2-1.6c-.7.7-1.4 1-2.3 1-1.1 0-2-.5-2.2-1.7h6.8v-.7c0-3-1.6-5.6-5.1-5.6-3 0-5.1 2.4-5.1 5.3 0 3.3 2.3 5.4 5.5 5.4zm-2.1-6.2c.2-1.1.8-1.8 1.8-1.8s1.6.7 1.8 1.8h-3.6zm8.5 5.9h3.6V9h-3.6v13.7zm5.7 0h3.6V9H167v13.7zm5.7 0h3.6V12.5h-3.6v10.2zm-.2-11.1h3.7V9h-3.7v2.6zM183.2 23c2 0 3.4-.8 4.4-2.1l-2-1.6c-.7.7-1.4 1-2.3 1-1.1 0-2-.5-2.2-1.7h6.8v-.7c0-3-1.6-5.6-5.1-5.6-3 0-5.1 2.4-5.1 5.3.1 3.3 2.4 5.4 5.5 5.4zm-2-6.2c.2-1.1.8-1.8 1.8-1.8s1.6.7 1.8 1.8h-3.6zm12.5 6.2c2.5 0 4.2-1.1 4.2-3.4 0-2-1.6-2.7-3.6-3.3-1.1-.3-1.7-.5-1.7-.9 0-.3.3-.5.8-.5.8 0 2 .3 3 .9l1.2-2.3c-1.1-.7-2.7-1.2-4.2-1.2-2.4 0-4.1 1.2-4.1 3.4 0 2.1 1.6 2.8 3.6 3.3 1.1.3 1.6.5 1.6.9s-.3.6-.9.6c-1.1 0-2.4-.4-3.5-1.1l-1.3 2.2c1.4.9 3.2 1.4 4.9 1.4zm10-.3h3.8l.9-2.4h5.1l.9 2.4h3.9l-5.6-13.3h-3.5l-5.5 13.3zm5.8-5.2l1.5-3.8 1.5 3.8h-3zm15.2 5.5c3.2 0 5.3-1.6 5.3-4.3 0-2.5-1.9-3.5-4.9-4.2-1.8-.4-2.3-.7-2.3-1.3 0-.5.4-.9 1.3-.9 1.1 0 2.5.5 3.7 1.3l1.8-2.6c-1.4-1.1-3.2-1.7-5.5-1.7-3.2 0-5.1 1.7-5.1 4.2 0 2.8 2.2 3.6 5 4.2 1.8.4 2.2.7 2.2 1.3 0 .6-.5.9-1.5.9-1.5 0-3-.5-4.3-1.6l-2 2.4c1.8 1.5 4 2.3 6.3 2.3z"/></svg>